<?xml version="1.0" standalone="no"?><!DOCTYPE svg PUBLIC "-//W3C//DTD SVG 1.1//EN" "http://www.w3.org/Graphics/SVG/1.1/DTD/svg11.dtd"><svg t="1548037140453" class="icon" style="" viewBox="0 0 1024 1024" version="1.1" xmlns="http://www.w3.org/2000/svg" p-id="4125" xmlns:xlink="http://www.w3.org/1999/xlink" width="200" height="200"><defs><style type="text/css"></style></defs><path d="M512 0a512 512 0 0 0-512 512 512 512 0 0 0 512 512 512 512 0 0 0 512-512 512 512 0 0 0-512-512z m311.076571 823.076571a437.686857 437.686857 0 0 1-139.849142 94.354286A435.785143 435.785143 0 0 1 512 952.027429a437.394286 437.394286 0 0 1-311.076571-128.804572 437.686857 437.686857 0 0 1-94.354286-139.922286A436.662857 436.662857 0 0 1 71.972571 512a437.394286 437.394286 0 0 1 128.804572-311.076571 437.686857 437.686857 0 0 1 139.922286-94.354286A436.662857 436.662857 0 0 1 512 71.972571a437.394286 437.394286 0 0 1 311.076571 128.804572 437.686857 437.686857 0 0 1 94.354286 139.922286A436.662857 436.662857 0 0 1 952.027429 512a437.394286 437.394286 0 0 1-128.950858 311.076571z" fill="#000000" fill-opacity=".45" p-id="4126"></path><path d="M630.198857 705.609143H544.987429V355.474286a35.986286 35.986286 0 0 0-35.986286-35.986286H413.037714a35.986286 35.986286 0 1 0 0 72.045714h59.977143v314.075429H387.803429a35.986286 35.986286 0 1 0 0 71.972571h242.395428a35.986286 35.986286 0 1 0 0-71.972571zM473.014857 220.525714a35.986286 35.986286 0 1 0 71.972572 0 35.986286 35.986286 0 0 0-71.972572 0z" fill="#000000" fill-opacity=".45" p-id="4127"></path></svg>