<?xml version="1.0" standalone="no"?><!DOCTYPE svg PUBLIC "-//W3C//DTD SVG 1.1//EN" "http://www.w3.org/Graphics/SVG/1.1/DTD/svg11.dtd"><svg t="1548037167754" class="icon" style="" viewBox="0 0 1024 1024" version="1.1" xmlns="http://www.w3.org/2000/svg" p-id="4374" xmlns:xlink="http://www.w3.org/1999/xlink" width="200" height="200"><defs><style type="text/css"></style></defs><path d="M716.032 76.8c10.496-13.184 36.288-19.392 59.52-5.44A512.704 512.704 0 0 1 1024 511.168C1024 794.368 794.752 1024 512 1024s-512-228.8-512-512c0-182.4 99.84-343.168 249.024-441.088 21.12-13.824 52.864-13.824 59.904 5.952 7.04 19.776-1.024 37.184-24.064 51.136-125.312 75.008-220.224 238.016-220.16 384 0 229.312 218.368 449.28 447.296 449.28s448-219.968 448-449.28c0-147.456-109.568-309.312-233.472-384-14.208-12.352-20.992-37.888-10.496-51.2zM512 0c17.728 0 32 17.216 32 38.4v307.2c0 21.312-14.336 38.4-32 38.4-17.728 0-32-17.216-32-38.4V38.4C479.936 17.28 494.272 0 512 0z" fill="#FFFFFF" p-id="4375"></path></svg>